<svg width="104" height="73" viewBox="0 0 104 73" fill="none" xmlns="http://www.w3.org/2000/svg">
<path opacity="0.4" d="M49.2266 69.7501C68.4876 69.7501 84.1017 54.136 84.1017 34.875C84.1017 15.6141 68.4876 0 49.2266 0C29.9657 0 14.3516 15.6141 14.3516 34.875C14.3516 54.136 29.9657 69.7501 49.2266 69.7501Z" fill="#EB5757"/>
<path d="M49.2259 59.2643C62.6961 59.2643 73.6158 48.3445 73.6158 34.8743C73.6158 21.4041 62.6961 10.4844 49.2259 10.4844C35.7557 10.4844 24.8359 21.4041 24.8359 34.8743C24.8359 48.3445 35.7557 59.2643 49.2259 59.2643Z" fill="#EB5757"/>
<path d="M89.1061 73C88.9877 73.0001 88.8704 72.9768 88.761 72.9315C88.6516 72.8862 88.5523 72.8197 88.4687 72.7358L84.2609 68.5281C84.0967 68.358 84.0058 68.1302 84.0078 67.8938C84.0099 67.6574 84.1047 67.4313 84.2719 67.2641C84.4391 67.0969 84.6652 67.0021 84.9016 67C85.1381 66.998 85.3658 67.0889 85.5359 67.2531L89.7436 71.4609C89.8697 71.587 89.9555 71.7476 89.9903 71.9225C90.0251 72.0974 90.0072 72.2786 89.939 72.4434C89.8708 72.6081 89.7552 72.7489 89.607 72.848C89.4587 72.9471 89.2844 73 89.1061 73Z" fill="#EB5757"/>
<path d="M84.9015 73C84.7232 73 84.5489 72.9471 84.4006 72.848C84.2524 72.7489 84.1369 72.6081 84.0686 72.4434C84.0004 72.2786 83.9825 72.0974 84.0173 71.9225C84.0521 71.7476 84.1379 71.587 84.264 71.4609L88.4718 67.2531C88.6418 67.0889 88.8696 66.998 89.106 67C89.3424 67.0021 89.5685 67.0969 89.7357 67.2641C89.9029 67.4313 89.9977 67.6574 89.9998 67.8938C90.0018 68.1302 89.9109 68.358 89.7467 68.5281L85.5389 72.7358C85.4553 72.8197 85.356 72.8862 85.2466 72.9315C85.1372 72.9769 85.0199 73.0002 84.9015 73Z" fill="#EB5757"/>
<path d="M102.106 43C101.988 43.0001 101.87 42.9768 101.761 42.9315C101.652 42.8862 101.552 42.8197 101.469 42.7358L97.2609 38.5281C97.0967 38.358 97.0058 38.1302 97.0078 37.8938C97.0099 37.6574 97.1047 37.4313 97.2719 37.2641C97.4391 37.0969 97.6652 37.0021 97.9016 37C98.1381 36.998 98.3658 37.0889 98.5359 37.2531L102.744 41.4609C102.87 41.587 102.956 41.7476 102.99 41.9225C103.025 42.0974 103.007 42.2786 102.939 42.4434C102.871 42.6081 102.755 42.7489 102.607 42.848C102.459 42.9471 102.284 43 102.106 43Z" fill="#EB5757"/>
<path d="M97.9015 43C97.7232 43 97.5489 42.9471 97.4006 42.848C97.2524 42.7489 97.1369 42.6081 97.0686 42.4434C97.0004 42.2786 96.9825 42.0974 97.0173 41.9225C97.0521 41.7476 97.1379 41.587 97.264 41.4609L101.472 37.2531C101.642 37.0889 101.87 36.998 102.106 37C102.342 37.0021 102.569 37.0969 102.736 37.2641C102.903 37.4313 102.998 37.6574 103 37.8938C103.002 38.1302 102.911 38.358 102.747 38.5281L98.5389 42.7358C98.4553 42.8197 98.356 42.8862 98.2466 42.9315C98.1372 42.9769 98.0199 43.0002 97.9015 43Z" fill="#EB5757"/>
<path d="M89.1061 13C88.9877 13.0001 88.8704 12.9768 88.761 12.9315C88.6516 12.8862 88.5523 12.8197 88.4687 12.7358L84.2609 8.52805C84.0967 8.358 84.0058 8.13024 84.0078 7.89383C84.0099 7.65741 84.1047 7.43127 84.2719 7.26409C84.4391 7.09692 84.6652 7.00209 84.9016 7.00003C85.1381 6.99798 85.3658 7.08887 85.5359 7.25311L89.7436 11.4609C89.8697 11.587 89.9555 11.7476 89.9903 11.9225C90.0251 12.0974 90.0072 12.2786 89.939 12.4434C89.8708 12.6081 89.7552 12.7489 89.607 12.848C89.4587 12.9471 89.2844 13 89.1061 13Z" fill="#EB5757"/>
<path d="M84.9015 13C84.7232 13 84.5489 12.9471 84.4006 12.848C84.2524 12.7489 84.1369 12.6081 84.0686 12.4434C84.0004 12.2786 83.9825 12.0974 84.0173 11.9225C84.0521 11.7476 84.1379 11.587 84.264 11.4609L88.4718 7.25311C88.6418 7.08887 88.8696 6.99798 89.106 7.00003C89.3424 7.00209 89.5685 7.09692 89.7357 7.26409C89.9029 7.43127 89.9977 7.65741 89.9998 7.89383C90.0018 8.13024 89.9109 8.358 89.7467 8.52805L85.5389 12.7358C85.4553 12.8197 85.356 12.8862 85.2466 12.9315C85.1372 12.9769 85.0199 13.0002 84.9015 13Z" fill="#EB5757"/>
<path d="M5.10614 21C4.98772 21.0001 4.87045 20.9768 4.76105 20.9315C4.65165 20.8862 4.55229 20.8197 4.46868 20.7358L0.260925 16.5281C0.0966803 16.358 0.00579222 16.1302 0.00784658 15.8938C0.00990094 15.6574 0.104729 15.4313 0.271904 15.2641C0.439079 15.0969 0.665225 15.0021 0.901638 15C1.13805 14.998 1.36581 15.0889 1.53587 15.2531L5.74362 19.4609C5.86968 19.587 5.95553 19.7476 5.9903 19.9225C6.02508 20.0974 6.00722 20.2786 5.93899 20.4434C5.87076 20.6081 5.75522 20.7489 5.60698 20.848C5.45874 20.9471 5.28444 21 5.10614 21Z" fill="#EB5757"/>
<path d="M0.901466 21C0.723163 21 0.54888 20.9471 0.400638 20.848C0.252396 20.7489 0.136853 20.6081 0.0686242 20.4434C0.000395518 20.2786 -0.0174597 20.0974 0.0173151 19.9225C0.05209 19.7476 0.13794 19.587 0.264001 19.4609L4.47175 15.2531C4.64181 15.0889 4.86957 14.998 5.10598 15C5.34239 15.0021 5.56854 15.0969 5.73571 15.2641C5.90289 15.4313 5.99772 15.6574 5.99977 15.8938C6.00182 16.1302 5.91094 16.358 5.74669 16.5281L1.53894 20.7358C1.45534 20.8197 1.35599 20.8862 1.24659 20.9315C1.13719 20.9769 1.01989 21.0002 0.901466 21Z" fill="#EB5757"/>
<path d="M8.10614 55C7.98772 55.0001 7.87045 54.9768 7.76105 54.9315C7.65165 54.8862 7.55229 54.8197 7.46868 54.7358L3.26093 50.5281C3.09668 50.358 3.00579 50.1302 3.00785 49.8938C3.0099 49.6574 3.10473 49.4313 3.2719 49.2641C3.43908 49.0969 3.66523 49.0021 3.90164 49C4.13805 48.998 4.36581 49.0889 4.53587 49.2531L8.74362 53.4609C8.86968 53.587 8.95553 53.7476 8.9903 53.9225C9.02508 54.0974 9.00722 54.2786 8.93899 54.4434C8.87076 54.6081 8.75522 54.7489 8.60698 54.848C8.45874 54.9471 8.28444 55 8.10614 55Z" fill="#EB5757"/>
<path d="M3.90147 55C3.72316 55 3.54888 54.9471 3.40064 54.848C3.2524 54.7489 3.13685 54.6081 3.06862 54.4434C3.0004 54.2786 2.98254 54.0974 3.01732 53.9225C3.05209 53.7476 3.13794 53.587 3.264 53.4609L7.47175 49.2531C7.64181 49.0889 7.86957 48.998 8.10598 49C8.34239 49.0021 8.56854 49.0969 8.73571 49.2641C8.90289 49.4313 8.99772 49.6574 8.99977 49.8938C9.00182 50.1302 8.91094 50.358 8.74669 50.5281L4.53894 54.7358C4.45534 54.8197 4.35599 54.8862 4.24659 54.9315C4.13719 54.9769 4.01989 55.0002 3.90147 55Z" fill="#EB5757"/>
<path d="M49 27V35.3333" stroke="white" stroke-width="5" stroke-linecap="round" stroke-linejoin="round"/>
<path d="M49 43.6641H49.0208" stroke="white" stroke-width="5" stroke-linecap="round" stroke-linejoin="round"/>
</svg>
