<?xml version="1.0" encoding="utf-8"?>
<!-- Uploaded to: SVG Repo, www.svgrepo.com, Generator: SVG Repo Mixer Tools -->
<svg width="800px" height="800px" viewBox="0 0 1024 1024" class="icon"  version="1.1" xmlns="http://www.w3.org/2000/svg"><path d="M693.504 204.8C720.5376 204.8 742.4 225.9712 742.4 252.0576V358.4h-51.2v-102.4H256v512h179.2v51.2H253.696C226.6624 819.2 204.8 798.0288 204.8 771.9424V252.0576C204.8 225.9456 226.688 204.8 253.696 204.8z" fill="#ED892D" /><path d="M204.8 307.2h537.6v51.2H204.8z" fill="#EF8919" /><path d="M460.8 409.6h-153.6v128h153.6v-128z m-51.2 51.2v25.6h-51.2v-25.6h51.2zM486.4 614.4h-128v51.2h98.0992a254.08 254.08 0 0 0-16.1792 51.1744L307.2 716.8v-153.6l230.4256-0.0512A257.5104 257.5104 0 0 0 486.4 614.4z" fill="#F6C37B" /><path d="M652.8 409.6a115.2 115.2 0 1 0 0 230.4 115.2 115.2 0 0 0 0-230.4z m0 51.2a64 64 0 1 1 0 128 64 64 0 0 1 0-128z" fill="#C043DE" /><path d="M658.9184 589.6704a25.6 25.6 0 1 1 4.5312 50.9952 166.5536 166.5536 0 0 0-144.4352 117.7088l-1.8432 6.6816 15.5136 0.768 11.6992 0.4352c28.928 0.9472 69.4016 1.536 121.3184 1.7408a25.6 25.6 0 0 1-0.2048 51.2l-61.0816-0.4864c-27.392-0.3328-50.048-0.8448-68.0192-1.4848l-18.1248-0.8192c-9.472-0.512-17.1008-1.1008-22.912-1.7664a83.1744 83.1744 0 0 1-11.9552-2.0992 32.256 32.256 0 0 1-8.3968-3.456c-8.1152-4.7872-14.336-12.928-13.0304-25.472a217.6512 217.6512 0 0 1 196.9408-193.9456zM793.6 774.4a19.2 19.2 0 0 1 2.6112 38.2208L793.6 812.8h-51.2a19.2 19.2 0 0 1-2.6112-38.2208L742.4 774.4h51.2zM793.6 723.2a19.2 19.2 0 0 1 2.6112 38.2208L793.6 761.6h-51.2a19.2 19.2 0 0 1-2.6112-38.2208L742.4 723.2h51.2zM793.6 672a19.2 19.2 0 0 1 2.6112 38.2208L793.6 710.4h-51.2a19.2 19.2 0 0 1-2.6112-38.2208L742.4 672h51.2z" fill="#C043DE" /></svg>