<svg width="92" height="58" viewBox="0 0 92 58" fill="none" xmlns="http://www.w3.org/2000/svg">
<path d="M76.6796 49.5602L75.9531 51.2266L80.4239 53.1756L81.1503 51.5092L76.6796 49.5602Z" fill="#10BE4F"/>
<path d="M78.0955 4.88072L73.8906 7.35156L74.8116 8.91886L79.0165 6.44801L78.0955 4.88072Z" fill="#10BE4F"/>
<path d="M86.7216 31.6976L86.5547 33.5078L91.3051 33.9457L91.472 32.1356L86.7216 31.6976Z" fill="#10BE4F"/>
<path d="M15.0648 52.5841L15.8047 54.2812L11.2513 56.2663L10.5114 54.5691L15.0648 52.5841Z" fill="#10BE4F"/>
<path d="M13.6236 7.08503L17.9062 9.60156L16.9683 11.1978L12.6856 8.68131L13.6236 7.08503Z" fill="#10BE4F"/>
<path d="M4.83785 34.3985L5.00781 36.2422L0.169541 36.6882L-0.0004177 34.8446L4.83785 34.3985Z" fill="#10BE4F"/>
<path opacity="0.4" d="M46.7578 58C62.7741 58 75.7578 45.0163 75.7578 29C75.7578 12.9837 62.7741 0 46.7578 0C30.7416 0 17.7578 12.9837 17.7578 29C17.7578 45.0163 30.7416 58 46.7578 58Z" fill="#10BE4F"/>
<path d="M46.7578 49.2812C57.9588 49.2812 67.039 40.201 67.039 29C67.039 17.799 57.9588 8.71875 46.7578 8.71875C35.5568 8.71875 26.4766 17.799 26.4766 29C26.4766 40.201 35.5568 49.2812 46.7578 49.2812Z" fill="#10BE4F"/>
<path d="M42.6151 37.6998C42.4558 37.6999 42.2982 37.6677 42.1518 37.6052C42.0053 37.5427 41.873 37.4512 41.7629 37.3362L35.3075 30.618C35.198 30.5065 35.1117 30.3744 35.0535 30.2293C34.9954 30.0843 34.9666 29.9291 34.9689 29.7729C34.9711 29.6166 35.0043 29.4623 35.0666 29.319C35.1289 29.1757 35.219 29.0461 35.3316 28.9378C35.4443 28.8296 35.5774 28.7447 35.7231 28.6882C35.8687 28.6317 36.0242 28.6046 36.1804 28.6086C36.3367 28.6126 36.4905 28.6475 36.6332 28.7114C36.7758 28.7752 36.9044 28.8668 37.0114 28.9806L42.6758 34.8756L57.4847 21.5909C57.6 21.4855 57.7349 21.404 57.8818 21.3511C58.0287 21.2983 58.1846 21.275 58.3405 21.2827C58.4964 21.2904 58.6493 21.3289 58.7902 21.3961C58.9312 21.4632 59.0574 21.5576 59.1617 21.6738C59.2659 21.79 59.3461 21.9257 59.3976 22.0731C59.4491 22.2204 59.4709 22.3766 59.4617 22.5324C59.4525 22.6883 59.4125 22.8407 59.3441 22.981C59.2756 23.1213 59.18 23.2467 59.0628 23.3498L43.404 37.3971C43.1875 37.5921 42.9064 37.6999 42.6151 37.6998Z" fill="white"/>
</svg>
